<svg id="Layer_1" data-name="Layer 1" xmlns="http://www.w3.org/2000/svg" xmlns:xlink="http://www.w3.org/1999/xlink" viewBox="0 0 48 48"><defs><style>.cls-1{opacity:0.6;fill:url(#Gradiente_sem_nome_9);}.cls-2{font-size:17.07px;font-family:Lato-Thin, Lato;font-weight:200;letter-spacing:-0.18em;}.cls-2,.cls-3{fill:#fff;}</style><linearGradient id="Gradiente_sem_nome_9" x1="-0.02" y1="24" x2="48.02" y2="24" gradientUnits="userSpaceOnUse"><stop offset="0" stop-color="#005584"/><stop offset="1" stop-color="#008bda"/></linearGradient></defs><title>icons_bruno</title><circle class="cls-1" cx="24" cy="24" r="24.02"/><text class="cls-2" transform="translate(22.36 29.04)">A</text><path class="cls-3" d="M18.64,20.54a4,4,0,0,0-3.7,2.52,4,4,0,0,0,7.41,0A4,4,0,0,0,18.64,20.54Zm0,4.21a1.69,1.69,0,1,1,1.69-1.69A1.69,1.69,0,0,1,18.64,24.75Zm0-2.7a1,1,0,1,0,1,1A1,1,0,0,0,18.64,22.05Z"/></svg>